<svg version="1.0" xmlns="http://www.w3.org/2000/svg"
 width="3375.000000pt" height="3375.000000pt" viewBox="0 0 3375.000000 3375.000000"
 preserveAspectRatio="xMidYMid meet">

<g transform="translate(0.000000,3375.000000) scale(0.100000,-0.100000)"
fill="#9c1f15" stroke="none">
<path d="M8915 28713 c-16 -3 -34 -8 -40 -13 -5 -4 -36 -11 -67 -15 -34 -4
-59 -13 -62 -21 -4 -10 -27 -14 -89 -14 -63 0 -88 -4 -97 -15 -7 -8 -20 -15
-30 -15 -10 0 -23 -7 -30 -15 -8 -9 -30 -15 -60 -15 -30 0 -52 -6 -60 -15 -7
-9 -29 -15 -52 -15 -25 0 -41 -5 -44 -15 -4 -10 -20 -15 -44 -15 -21 0 -43 -7
-50 -15 -7 -8 -20 -15 -30 -15 -10 0 -23 -7 -30 -15 -7 -8 -20 -15 -30 -15 -9
0 -25 -9 -35 -20 -10 -11 -28 -20 -40 -20 -13 0 -25 -7 -29 -15 -3 -8 -16 -15
-30 -15 -13 0 -26 -7 -30 -15 -3 -8 -16 -15 -30 -15 -13 0 -26 -7 -30 -15 -3
-8 -17 -15 -31 -15 -14 0 -28 -7 -31 -15 -4 -8 -17 -15 -30 -15 -14 0 -27 -7
-30 -15 -4 -8 -16 -15 -28 -15 -12 0 -37 -16 -56 -35 -19 -20 -40 -33 -46 -31
-6 2 -27 -11 -45 -30 -18 -19 -40 -34 -49 -34 -9 0 -36 -20 -60 -45 -24 -25
-51 -45 -60 -45 -20 0 -392 -372 -407 -407 -6 -15 -30 -46 -52 -68 -23 -21
-41 -46 -41 -55 0 -9 -13 -29 -30 -45 -16 -16 -30 -36 -30 -44 0 -9 -16 -33
-35 -55 -19 -21 -35 -45 -35 -53 0 -8 -13 -26 -30 -40 -16 -13 -30 -34 -30
-44 0 -11 -13 -33 -30 -49 -21 -21 -30 -39 -30 -62 0 -23 -9 -42 -30 -62 -21
-21 -30 -39 -30 -61 0 -18 -7 -38 -15 -45 -8 -7 -15 -19 -15 -27 0 -8 -9 -26
-20 -40 -11 -14 -20 -40 -20 -58 0 -20 -6 -35 -15 -39 -8 -3 -15 -16 -15 -30
0 -13 -7 -26 -15 -30 -11 -4 -15 -21 -15 -59 0 -36 -5 -59 -15 -67 -8 -7 -15
-20 -15 -30 0 -10 -7 -23 -15 -30 -11 -9 -15 -32 -15 -80 0 -51 -4 -69 -15
-74 -10 -3 -15 -19 -15 -44 0 -23 -6 -45 -15 -52 -12 -10 -15 -39 -15 -140 0
-101 -3 -130 -15 -140 -13 -11 -15 -352 -15 -2957 0 -2607 -2 -2944 -15 -2949
-23 -9 -23 -8045 0 -8064 13 -11 15 -86 15 -561 0 -536 0 -549 20 -569 20 -20
33 -20 5426 -20 4781 0 5408 2 5418 15 8 10 32 15 79 16 49 1 70 6 76 17 7 12
34 16 141 18 110 1 134 4 142 18 6 10 22 16 47 16 22 0 44 6 51 15 10 11 36
15 110 15 78 0 99 3 104 15 3 8 17 15 31 15 14 0 28 7 31 15 4 11 21 15 59 15
34 0 57 5 65 15 7 8 29 15 50 15 24 0 40 5 44 15 3 10 19 15 46 15 27 0 43 5
46 15 4 8 16 15 28 15 12 0 29 9 39 20 12 15 29 20 65 20 41 0 53 5 77 30 21
22 38 30 64 30 27 1 42 8 61 30 18 23 32 30 60 30 28 0 42 7 60 30 14 16 34
29 44 30 10 0 34 16 53 35 19 19 42 35 52 35 9 0 30 14 46 30 16 16 36 30 44
30 20 0 341 320 341 340 0 9 27 42 60 75 48 47 60 66 60 90 0 22 10 41 35 65
27 26 35 42 35 69 1 27 8 42 30 61 24 19 30 32 30 62 0 25 5 41 15 44 10 4 15
20 15 44 0 21 7 43 15 50 9 8 15 30 15 60 0 30 6 52 15 60 9 7 15 29 15 51 0
21 6 42 14 46 8 5 15 38 19 92 4 46 12 90 19 99 10 11 14 105 16 386 4 366 3
372 -17 390 -18 16 -21 31 -21 98 0 57 -4 84 -15 94 -9 10 -15 34 -15 63 0 31
-5 53 -15 61 -9 8 -15 30 -15 60 0 30 -6 52 -15 60 -8 7 -15 23 -15 35 0 13
-7 25 -15 29 -10 3 -15 19 -15 46 0 27 -5 43 -15 46 -8 4 -15 17 -15 30 0 14
-7 27 -15 30 -9 4 -15 20 -15 43 -1 28 -9 44 -35 71 -19 19 -35 40 -35 47 0 7
-27 41 -60 76 -33 34 -60 69 -60 77 0 21 -291 310 -313 310 -9 0 -34 18 -54
41 -20 22 -50 46 -67 53 -18 7 -49 32 -71 55 -23 24 -48 41 -61 41 -12 0 -24
7 -28 15 -3 8 -16 15 -30 15 -13 0 -26 7 -30 15 -3 8 -16 15 -29 15 -13 0 -33
12 -47 30 -14 16 -35 29 -48 30 -12 0 -25 7 -28 15 -8 21 -67 55 -96 55 -14 0
-36 13 -53 30 -16 17 -36 30 -46 30 -9 0 -22 7 -29 15 -7 8 -20 15 -30 15 -10
0 -23 7 -30 15 -7 8 -23 15 -35 15 -13 0 -25 7 -29 15 -3 8 -17 15 -31 15 -14
0 -28 7 -31 15 -4 9 -19 15 -39 15 -19 0 -40 6 -47 13 -37 36 -73 57 -97 57
-17 0 -38 11 -56 30 -20 21 -38 30 -61 30 -17 0 -37 7 -44 15 -7 8 -23 15 -35
15 -13 0 -25 7 -29 15 -3 10 -19 15 -46 15 -27 0 -43 5 -46 15 -4 8 -17 15
-30 15 -14 0 -27 7 -30 15 -4 10 -19 15 -43 15 -28 0 -44 7 -65 29 -17 18 -43
32 -67 36 -21 4 -43 13 -50 21 -6 8 -22 14 -36 14 -13 0 -26 7 -29 15 -4 10
-20 15 -44 15 -24 0 -40 5 -44 15 -3 8 -17 15 -31 15 -14 0 -28 7 -31 15 -4
10 -20 15 -44 15 -21 0 -43 7 -50 15 -7 8 -20 15 -30 15 -10 0 -23 7 -30 15
-7 8 -27 15 -46 15 -18 0 -39 6 -46 14 -8 7 -25 17 -38 21 -14 4 -34 14 -45
21 -11 8 -38 14 -61 14 -25 0 -47 6 -54 15 -7 8 -20 15 -30 15 -10 0 -23 7
-30 15 -7 8 -27 15 -45 15 -18 0 -38 7 -45 15 -7 8 -23 15 -35 15 -13 0 -25 7
-29 15 -4 11 -21 15 -58 15 -45 1 -57 5 -82 30 -24 25 -37 30 -76 30 -29 0
-52 6 -59 14 -7 8 -23 17 -38 21 -14 3 -32 13 -40 20 -8 8 -29 15 -48 15 -20
0 -35 6 -39 15 -3 10 -19 15 -46 15 -27 0 -43 5 -46 15 -4 10 -19 15 -43 15
-28 0 -44 7 -66 30 -24 25 -37 30 -76 30 -29 0 -51 6 -59 15 -7 8 -23 15 -37
15 -13 0 -26 7 -29 15 -4 9 -20 15 -43 15 -26 0 -44 8 -64 30 -18 17 -44 31
-67 35 -22 4 -44 13 -51 21 -6 8 -19 14 -29 14 -10 0 -23 7 -30 15 -7 8 -29
15 -50 15 -24 0 -40 5 -44 15 -3 8 -17 15 -31 15 -14 0 -28 7 -31 15 -4 9 -20
15 -43 15 -27 0 -44 8 -65 30 -20 21 -39 30 -61 30 -22 0 -40 9 -59 29 -17 18
-43 32 -66 36 -23 4 -50 18 -67 35 -19 21 -38 30 -61 30 -23 0 -41 9 -62 30
-21 22 -39 30 -63 30 -24 0 -41 8 -62 30 -20 21 -38 30 -60 30 -22 0 -40 9
-60 30 -16 17 -36 30 -45 30 -9 0 -27 9 -40 20 -13 11 -31 20 -40 20 -10 0
-20 7 -24 15 -3 8 -16 15 -29 15 -13 0 -33 12 -47 30 -14 16 -35 29 -47 30
-11 0 -33 14 -46 30 -14 17 -35 30 -47 30 -11 0 -23 7 -26 15 -4 8 -16 15 -29
15 -12 0 -28 7 -35 15 -7 8 -20 15 -29 15 -9 0 -39 22 -66 50 -28 27 -57 50
-66 50 -9 0 -22 7 -29 15 -7 8 -21 15 -31 15 -10 0 -39 20 -63 45 -25 25 -52
45 -61 45 -9 0 -37 23 -64 50 -27 27 -57 50 -66 50 -10 0 -44 27 -77 60 -32
33 -65 60 -74 60 -9 0 -59 43 -111 95 -51 52 -101 95 -111 95 -22 1 -384 364
-380 382 1 7 -26 40 -60 72 -34 32 -62 67 -62 77 0 10 -29 47 -65 82 -38 38
-63 70 -60 78 3 8 -10 27 -30 43 -20 17 -35 39 -35 51 0 11 -13 32 -30 45 -16
14 -29 35 -30 47 0 11 -13 33 -30 46 -16 14 -30 33 -30 43 0 9 -16 32 -35 51
-19 19 -35 42 -35 52 0 10 -7 24 -15 31 -8 7 -15 20 -15 30 0 10 -7 23 -15 30
-8 7 -15 23 -15 35 0 13 -7 25 -15 29 -8 3 -15 16 -15 30 0 13 -7 26 -15 30
-8 3 -15 17 -15 31 0 14 -7 28 -15 31 -8 4 -15 17 -15 30 0 14 -7 27 -15 30
-11 5 -15 21 -15 60 0 48 -4 58 -31 82 -22 20 -30 36 -31 62 0 20 -9 43 -19
53 -11 10 -19 25 -19 33 0 9 -7 22 -15 30 -9 10 -15 34 -15 63 0 31 -5 53 -15
61 -8 7 -15 20 -15 30 0 10 -7 23 -15 30 -10 8 -15 31 -15 65 0 38 -4 55 -15
59 -10 3 -15 19 -15 46 0 27 -5 43 -15 46 -12 5 -15 27 -15 110 0 84 -3 106
-15 110 -10 4 -15 20 -15 44 0 21 -7 43 -15 50 -11 10 -15 36 -15 111 0 76 -3
100 -15 106 -11 6 -15 32 -16 109 -1 87 -4 104 -21 118 -18 16 -19 33 -16 597
3 545 4 581 21 590 14 9 17 22 15 74 -2 49 2 68 15 83 14 15 17 39 17 129 0
86 3 113 15 123 8 7 15 20 15 30 0 10 7 23 15 30 11 9 15 32 15 82 0 52 4 70
15 74 10 4 15 20 15 44 0 21 7 43 15 50 9 8 15 30 15 60 0 30 6 52 15 60 8 7
15 21 15 31 0 9 7 24 15 33 8 8 15 28 15 45 0 19 8 38 20 48 11 10 20 27 20
39 0 12 7 27 15 34 8 7 15 27 15 45 0 18 7 38 15 45 8 7 15 20 15 30 0 10 7
23 15 30 8 7 15 20 15 30 0 10 7 23 15 30 8 7 15 23 15 37 0 13 7 26 15 29 8
4 15 17 15 30 0 14 7 27 15 30 8 4 15 14 15 24 0 10 7 25 15 34 8 8 15 23 15
33 0 11 16 34 35 53 19 19 35 41 35 50 0 9 14 29 30 45 17 16 30 36 30 45 0 9
14 29 30 45 17 16 30 36 30 45 0 9 14 29 30 45 17 16 30 37 30 46 0 10 36 53
80 97 44 44 80 87 80 96 0 21 486 506 507 506 8 0 54 41 102 90 52 53 96 90
107 90 11 0 42 23 69 50 27 28 57 50 66 50 9 0 35 20 58 45 23 25 49 45 59 45
10 0 31 14 47 30 20 21 38 30 60 30 23 0 42 10 68 35 20 19 44 35 54 35 10 1
29 14 43 30 13 17 34 30 46 30 12 0 27 7 34 15 7 8 21 15 32 15 10 0 21 7 24
15 4 8 16 15 28 15 11 0 34 14 50 30 20 21 39 30 61 30 22 0 40 10 65 35 27
28 42 35 71 35 24 0 39 5 43 15 3 8 16 15 30 15 13 0 26 7 30 15 3 8 16 15 29
15 14 0 30 7 37 15 7 8 20 15 30 15 10 0 23 7 30 15 8 9 30 15 60 15 30 0 52
6 60 15 7 8 23 15 37 15 13 0 26 7 29 15 4 11 21 15 59 15 34 0 57 5 65 15 7
8 20 15 30 15 9 0 25 8 34 19 11 13 31 19 63 19 26 1 53 8 63 17 9 8 26 15 37
15 12 0 23 7 27 15 4 11 21 15 59 15 36 0 59 5 67 15 8 9 30 15 60 15 30 0 52
6 60 15 8 10 31 15 65 15 38 0 55 4 59 15 4 11 21 15 59 15 36 0 59 5 67 15 9
11 34 15 96 15 67 0 85 3 92 17 8 13 23 16 73 15 41 -1 68 3 78 12 10 8 55 16
114 20 53 4 108 13 121 20 14 7 72 13 142 15 83 1 123 6 138 17 31 21 1651 21
1675 0 12 -11 56 -15 179 -18 126 -2 165 -6 171 -17 7 -10 45 -15 157 -19 112
-3 151 -8 157 -18 6 -10 31 -14 91 -14 62 0 87 -4 96 -15 10 -12 37 -15 125
-15 88 0 115 -3 125 -15 18 -22 43 -19 68 8 l22 23 0 1467 0 1466 -24 26 -23
25 -5144 -2 c-2829 0 -5157 -3 -5174 -5z"/>
<path d="M18030 23415 c-11 -13 -105 -15 -735 -15 -630 0 -724 -2 -735 -15
-10 -11 -36 -15 -110 -15 -78 0 -99 -3 -104 -15 -4 -12 -26 -15 -104 -15 -76
0 -102 -4 -112 -15 -7 -8 -29 -15 -50 -15 -24 0 -40 -5 -44 -15 -4 -11 -22
-15 -74 -15 -55 0 -72 -4 -86 -19 -11 -12 -30 -19 -47 -19 -16 1 -37 -6 -47
-15 -10 -10 -35 -17 -54 -17 -23 0 -38 -6 -42 -15 -3 -8 -16 -15 -30 -15 -13
0 -26 -7 -30 -15 -4 -11 -21 -15 -58 -15 -45 -1 -57 -5 -82 -30 -20 -21 -39
-30 -61 -30 -21 0 -40 -9 -59 -29 -16 -16 -42 -31 -62 -34 -19 -3 -51 -20 -70
-36 -19 -17 -42 -31 -52 -31 -9 -1 -28 -14 -42 -30 -13 -17 -33 -30 -45 -30
-11 -1 -31 -14 -45 -30 -13 -17 -33 -30 -43 -30 -22 0 -272 -249 -282 -281 -4
-12 -20 -35 -36 -50 -16 -16 -29 -37 -29 -48 0 -10 -13 -31 -30 -44 -16 -14
-30 -34 -30 -44 0 -11 -13 -32 -30 -48 -25 -24 -30 -37 -30 -76 0 -29 -6 -51
-15 -59 -8 -7 -15 -20 -15 -30 0 -9 -9 -25 -20 -35 -13 -12 -20 -31 -20 -55 0
-24 -5 -40 -15 -44 -10 -3 -15 -19 -15 -46 0 -27 -5 -43 -15 -46 -12 -5 -15
-25 -15 -94 0 -69 -3 -89 -15 -94 -12 -4 -15 -27 -15 -119 0 -90 -3 -117 -15
-127 -12 -10 -15 -37 -15 -125 0 -88 3 -115 15 -125 12 -10 15 -40 15 -155 0
-115 3 -145 15 -155 12 -10 15 -37 15 -127 0 -92 3 -115 15 -119 10 -4 15 -20
15 -44 0 -21 7 -43 15 -50 10 -8 15 -31 15 -67 0 -37 4 -55 14 -59 8 -3 17
-17 21 -31 3 -14 13 -32 20 -40 8 -8 15 -29 15 -48 0 -20 6 -35 15 -39 8 -3
15 -17 15 -31 0 -14 7 -28 15 -31 8 -4 15 -16 15 -29 0 -12 7 -28 15 -35 8 -7
15 -20 15 -30 0 -10 7 -23 15 -30 8 -7 15 -21 15 -32 0 -10 23 -40 50 -65 28
-25 50 -54 50 -64 0 -21 317 -339 339 -339 8 0 34 -20 58 -45 23 -25 51 -45
61 -45 10 0 33 -16 52 -35 19 -19 42 -35 53 -35 10 0 30 -13 44 -30 13 -16 35
-30 46 -30 12 -1 33 -14 47 -30 13 -17 34 -30 45 -30 12 0 31 -13 43 -30 15
-19 31 -30 48 -30 13 0 27 -7 30 -15 4 -8 17 -15 30 -15 13 0 28 -9 34 -20 8
-14 17 -19 30 -15 13 4 23 -1 32 -14 7 -12 22 -21 34 -21 12 0 27 -7 34 -15 7
-8 20 -15 30 -15 10 0 23 -7 30 -15 7 -8 20 -15 30 -15 10 0 23 -7 30 -15 7
-8 20 -15 30 -15 10 0 23 -7 30 -15 7 -8 23 -15 37 -15 13 0 26 -7 29 -15 4
-8 17 -15 30 -15 14 0 27 -7 30 -15 4 -8 17 -15 30 -15 12 0 27 -7 32 -16 5
-10 24 -17 46 -19 26 -1 47 -11 69 -33 22 -22 43 -32 63 -32 21 0 40 -10 59
-30 25 -26 36 -30 82 -30 38 0 55 -4 59 -15 4 -8 17 -15 30 -15 14 0 27 -7 30
-15 4 -8 17 -15 30 -15 14 0 27 -7 30 -15 4 -8 16 -15 29 -15 12 0 28 -6 34
-14 6 -8 36 -17 66 -21 29 -3 59 -13 66 -21 6 -8 22 -14 34 -14 13 0 25 -7 29
-15 3 -8 17 -15 31 -15 14 0 28 -7 31 -15 4 -8 17 -15 30 -15 14 0 27 -7 30
-15 4 -11 21 -15 59 -15 34 0 57 -5 65 -15 7 -8 20 -15 30 -15 10 0 23 -7 30
-15 7 -8 27 -15 45 -15 18 0 38 -6 44 -14 7 -8 24 -17 39 -21 15 -4 30 -11 33
-17 4 -6 31 -13 60 -16 43 -3 60 -10 81 -33 23 -24 35 -29 76 -29 32 0 54 -5
62 -15 7 -8 20 -15 30 -15 10 0 23 -7 30 -15 8 -10 31 -15 67 -15 38 0 55 -4
59 -15 4 -8 17 -15 30 -15 14 0 27 -7 30 -15 4 -10 20 -15 44 -15 21 0 43 -7
50 -15 7 -8 18 -15 25 -15 7 0 24 -9 38 -20 14 -11 40 -20 60 -20 22 0 37 -6
41 -15 3 -8 17 -15 31 -15 14 0 28 -7 31 -15 4 -11 21 -15 59 -15 34 0 57 -5
65 -15 7 -8 20 -15 30 -15 10 0 23 -7 30 -15 7 -8 20 -15 30 -15 10 0 23 -7
30 -15 7 -8 20 -15 30 -15 10 0 23 -7 30 -15 7 -8 28 -15 46 -15 22 0 40 -7
51 -20 10 -11 27 -20 39 -20 12 0 24 -6 26 -12 3 -7 18 -13 36 -14 31 -2 117
-38 128 -55 3 -5 13 -9 23 -9 10 0 24 -7 31 -15 7 -8 23 -15 35 -15 13 0 25
-7 29 -15 3 -9 18 -15 40 -15 26 0 44 -8 66 -30 22 -21 41 -30 64 -30 25 0 39
-8 62 -35 23 -28 36 -35 65 -35 20 0 42 -7 49 -15 7 -8 20 -15 30 -15 10 0 23
-7 30 -15 7 -8 20 -15 29 -15 10 0 30 -13 46 -30 20 -21 38 -30 60 -30 20 0
42 -10 62 -29 17 -15 48 -31 69 -34 20 -4 40 -10 43 -14 17 -24 67 -53 90 -53
17 0 38 -11 56 -30 16 -16 36 -30 46 -30 9 0 22 -7 29 -15 7 -8 20 -15 30 -15
10 0 23 -7 30 -15 7 -8 20 -15 29 -15 10 0 30 -13 46 -30 16 -16 36 -30 45
-30 10 0 34 -16 54 -35 21 -19 46 -35 56 -35 10 0 20 -7 24 -15 3 -8 15 -15
27 -15 12 0 41 -20 67 -45 25 -25 53 -45 62 -45 10 0 23 -7 30 -15 7 -8 20
-15 29 -15 9 0 39 -22 66 -50 27 -27 56 -50 65 -50 9 0 29 -13 45 -30 16 -16
36 -30 45 -30 8 0 42 -27 75 -60 33 -33 67 -60 77 -60 9 0 47 -29 83 -65 36
-36 71 -65 78 -65 19 0 437 -420 437 -439 0 -9 36 -52 80 -95 44 -44 80 -87
80 -96 0 -9 20 -36 45 -60 25 -24 45 -52 45 -61 0 -9 7 -22 15 -29 8 -7 15
-20 15 -29 0 -9 23 -39 50 -66 28 -27 50 -56 50 -65 0 -8 7 -24 15 -34 8 -11
15 -27 15 -35 1 -9 14 -27 30 -41 23 -18 30 -32 30 -60 0 -28 7 -42 30 -60 16
-14 29 -35 30 -46 0 -12 7 -27 15 -34 8 -7 15 -20 15 -30 0 -10 6 -23 14 -29
8 -7 17 -30 21 -51 4 -21 13 -44 21 -51 8 -6 14 -22 14 -34 0 -13 7 -25 15
-29 8 -3 15 -16 15 -30 0 -13 7 -26 15 -30 8 -3 15 -15 15 -26 0 -12 7 -28 15
-36 9 -10 15 -34 15 -63 0 -31 5 -53 15 -61 8 -7 15 -20 15 -30 0 -10 7 -23
15 -30 10 -8 15 -31 15 -67 0 -38 4 -55 15 -59 9 -4 15 -19 15 -38 0 -18 7
-41 15 -52 9 -12 14 -42 15 -82 0 -50 4 -66 20 -79 15 -13 20 -30 20 -69 0
-34 5 -56 15 -64 11 -9 15 -35 15 -105 0 -70 4 -96 15 -105 11 -10 15 -35 15
-110 0 -75 4 -100 15 -110 13 -11 15 -86 15 -565 0 -479 -2 -554 -15 -565 -12
-10 -15 -37 -15 -125 0 -88 -3 -115 -15 -125 -11 -9 -15 -33 -15 -90 0 -57 -4
-81 -15 -90 -10 -8 -15 -30 -15 -65 0 -35 -5 -57 -15 -65 -10 -9 -15 -32 -15
-76 0 -52 -4 -68 -20 -81 -13 -12 -20 -30 -20 -54 0 -25 -5 -39 -16 -43 -13
-5 -15 -15 -9 -55 6 -43 4 -52 -14 -68 -12 -9 -21 -27 -21 -39 0 -12 -7 -24
-15 -28 -11 -4 -15 -21 -15 -61 0 -40 -4 -57 -15 -61 -8 -4 -15 -16 -15 -29 0
-12 -7 -28 -15 -35 -8 -7 -15 -29 -15 -49 -1 -27 -8 -42 -30 -61 -26 -20 -30
-31 -30 -71 0 -26 -6 -54 -13 -61 -8 -7 -17 -26 -21 -41 -3 -15 -11 -27 -16
-27 -6 0 -10 -11 -10 -24 0 -15 -13 -36 -35 -55 -28 -24 -35 -38 -35 -66 0
-28 -7 -42 -30 -62 -16 -13 -30 -35 -30 -46 -1 -12 -14 -33 -30 -47 -18 -14
-30 -34 -30 -47 0 -13 -7 -26 -15 -29 -8 -4 -15 -15 -15 -25 0 -11 -9 -27 -20
-36 -11 -10 -20 -27 -20 -39 0 -14 -17 -37 -45 -61 -25 -21 -45 -47 -45 -57 0
-11 -20 -39 -45 -63 -25 -23 -45 -51 -45 -60 0 -10 -36 -53 -80 -96 -44 -42
-80 -85 -80 -95 0 -22 -449 -472 -471 -472 -9 0 -50 -34 -92 -75 -41 -41 -83
-75 -94 -75 -10 0 -38 -23 -62 -50 -24 -28 -52 -50 -62 -50 -11 0 -39 -20 -62
-45 -24 -25 -52 -45 -63 -45 -11 0 -31 -13 -44 -30 -14 -16 -34 -29 -46 -30
-11 0 -34 -16 -50 -35 -16 -20 -38 -35 -50 -35 -12 0 -27 -7 -34 -15 -7 -8
-20 -15 -30 -15 -10 0 -23 -7 -30 -15 -7 -8 -20 -15 -30 -15 -9 0 -30 -13 -46
-30 -21 -21 -39 -30 -64 -30 -26 -1 -41 -8 -60 -30 -13 -17 -33 -30 -44 -30
-10 0 -34 -16 -53 -35 -19 -19 -42 -35 -52 -35 -11 0 -21 -7 -25 -15 -3 -8
-16 -15 -29 -15 -14 0 -30 -7 -37 -15 -8 -9 -30 -15 -60 -15 -39 0 -52 -5 -76
-30 -20 -21 -39 -30 -62 -30 -23 0 -41 -9 -63 -31 -18 -19 -44 -33 -67 -36
-20 -3 -41 -12 -45 -20 -4 -7 -18 -13 -31 -13 -13 0 -29 -7 -36 -15 -8 -10
-31 -15 -65 -15 -38 0 -55 -4 -59 -15 -3 -8 -16 -15 -30 -15 -13 0 -26 -7 -30
-15 -4 -11 -21 -15 -61 -15 -40 0 -57 -4 -61 -15 -4 -8 -17 -15 -30 -15 -14 0
-27 -7 -30 -15 -5 -11 -22 -15 -64 -15 -42 0 -59 -4 -64 -15 -3 -8 -15 -15
-27 -15 -12 0 -27 -7 -33 -16 -7 -10 -30 -16 -63 -18 -31 -1 -57 -9 -68 -19
-11 -11 -33 -17 -64 -17 -31 0 -53 -5 -61 -15 -9 -11 -34 -15 -95 -15 -61 0
-86 -4 -95 -15 -7 -8 -20 -15 -30 -15 -10 0 -23 -7 -30 -15 -10 -12 -37 -15
-127 -15 -92 0 -115 -3 -119 -15 -4 -11 -21 -15 -59 -15 -34 0 -57 -5 -65 -15
-10 -12 -37 -15 -125 -15 -88 0 -115 -3 -125 -15 -9 -11 -35 -15 -108 -15 -76
0 -99 -3 -114 -17 -17 -15 -46 -17 -237 -18 -193 0 -219 -2 -235 -17 -16 -17
-66 -18 -748 -18 -676 0 -733 1 -750 17 -17 15 -52 17 -335 19 -281 1 -317 3
-325 18 -7 13 -27 16 -112 16 -83 0 -105 3 -110 15 -8 22 -38 18 -63 -9 l-22
-23 0 -1888 0 -1888 22 -23 22 -24 5238 0 c4647 0 5238 2 5243 15 5 12 28 15
123 15 102 0 119 2 133 19 14 16 29 19 92 19 57 -1 80 3 94 15 10 10 32 17 49
17 17 0 36 7 43 15 9 11 32 15 80 15 48 0 71 4 80 15 7 8 20 15 30 15 10 0 23
7 30 15 8 9 30 15 60 15 30 0 52 6 60 15 7 8 23 15 35 15 13 0 25 7 29 15 3 8
17 15 31 15 14 0 28 7 31 15 4 8 14 15 24 15 10 0 25 6 32 13 7 8 31 16 52 20
24 4 52 18 71 37 17 16 38 30 47 30 8 0 21 7 28 15 7 8 20 15 30 15 10 0 23 7
30 15 7 8 20 15 29 15 10 0 30 14 46 30 16 17 37 30 47 30 10 0 34 16 54 35
20 19 40 32 46 29 5 -3 18 3 29 15 11 12 28 21 38 21 10 0 36 20 59 45 22 25
49 45 59 45 22 0 433 411 433 433 0 8 16 32 35 53 19 20 35 44 35 53 1 9 14
27 30 41 17 13 30 33 30 45 0 12 13 32 30 45 16 14 29 34 30 46 0 11 14 33 30
49 17 16 30 36 30 46 0 9 7 22 15 29 8 7 15 20 15 30 0 9 9 25 20 35 11 10 20
26 20 35 0 10 7 23 15 30 8 7 15 20 15 30 0 10 7 23 15 30 8 7 15 29 15 49 1
27 8 42 30 61 26 21 30 31 30 76 0 34 5 56 15 64 8 7 15 20 15 30 0 10 7 23
15 30 9 8 15 30 15 60 0 30 6 52 15 60 8 7 15 21 15 31 0 9 7 25 15 33 11 10
18 43 21 98 4 51 11 89 20 99 8 9 14 37 14 66 0 36 4 53 15 57 13 4 15 38 15
214 0 174 3 212 15 222 13 11 15 839 15 7340 0 6501 -2 7329 -15 7340 -13 11
-15 79 -15 499 l0 488 -23 21 -23 22 -4296 0 c-3806 0 -4297 2 -4308 15 -11
13 -84 15 -550 15 -466 0 -539 -2 -550 -15z"/>
</g>
</svg>
